<?xml version="1.0" encoding="UTF-8" standalone="no"?>
<svg
   version="1.1"
   id="Layer_1"
   x="0px"
   y="0px"
   width="100%"
   viewBox="0 0 512 512"
   enable-background="new 0 0 512 512"
   xml:space="preserve"
   sodipodi:docname="tasbih (1).svg"
   inkscape:version="1.2.1 (9c6d41e4, 2022-07-14)"
   inkscape:export-filename="../Desktop/icon.png"
   inkscape:export-xdpi="96"
   inkscape:export-ydpi="96"
   xmlns:inkscape="http://www.inkscape.org/namespaces/inkscape"
   xmlns:sodipodi="http://sodipodi.sourceforge.net/DTD/sodipodi-0.dtd"
   xmlns="http://www.w3.org/2000/svg"
   xmlns:svg="http://www.w3.org/2000/svg"><defs
   id="defs627" /><sodipodi:namedview
   id="namedview625"
   pagecolor="#ffffff"
   bordercolor="#666666"
   borderopacity="1.0"
   inkscape:showpageshadow="2"
   inkscape:pageopacity="0.0"
   inkscape:pagecheckerboard="0"
   inkscape:deskcolor="#d1d1d1"
   showgrid="false"
   inkscape:zoom="0.65186406"
   inkscape:cx="200.96214"
   inkscape:cy="161.84356"
   inkscape:window-width="1920"
   inkscape:window-height="1027"
   inkscape:window-x="0"
   inkscape:window-y="25"
   inkscape:window-maximized="1"
   inkscape:current-layer="g839" />
<g
   id="g881"><path
     fill="#e5c4a3"
     opacity="1"
     stroke="none"
     d="m 312.20055,209.32821 c 1.13098,-11.38533 5.93826,-20.482 14.14666,-27.67699 2.88199,-2.52615 2.61371,-3.97087 -0.0264,-6.54524 -12.04526,-11.74541 -23.93686,-23.65149 -35.7378,-35.64342 -13.13018,-13.3427 -16.0704,-31.70996 -7.97079,-47.2765 1.48678,-2.85739 2.30823,-3.73577 5.06485,-0.96191 31.0003,31.19432 62.58285,61.82374 93.09451,93.48618 30.926,32.09244 40.30441,70.63285 26.67426,112.95343 -13.58326,42.17505 -43.82025,67.41132 -87.31055,75.80533 -22.82648,4.4057 -45.05838,0.90058 -66.23807,-8.84451 -2.42901,-1.11765 -3.78998,-2.06595 -3.24043,-5.47623 1.59705,-9.9107 -1.06822,-18.85379 -8.21167,-26.11206 -1.88033,-1.91052 -1.60626,-2.8497 0.0747,-4.73968 9.49661,-10.67728 11.14601,-22.71469 5.20159,-35.62402 -1.17934,-2.56113 -0.49711,-3.25199 1.55197,-4.51548 13.03233,-8.0361 18.48039,-20.90961 14.79939,-35.43512 -0.7969,-3.14456 0.27728,-3.8453 2.81043,-4.84401 13.053,-5.14627 20.16,-14.87259 20.85391,-28.86673 0.17294,-3.48704 1.89856,-3.11429 4.04684,-3.09894 2.15643,0.0154 4.60709,-1.13964 4.95145,2.78272 1.26947,14.45903 8.19141,26.07823 18.43381,36.0538 2.28219,2.22273 3.64743,2.70677 5.83447,0.0788 2.43899,-2.93085 6.85974,-5.25844 7.43374,-8.39473 0.54966,-3.0035 -4.37704,-5.26103 -6.68493,-8.04306 -6.90863,-8.32794 -10.04593,-17.86113 -9.552,-29.0616 z"
     id="path474" /><path
     fill="#e5c4a3"
     opacity="1"
     stroke="none"
     d="m 169.63028,245.74998 c 5.71554,-1.73229 8.27798,-6.67403 11.87312,-10.3116 1.30377,-1.31914 -1.37118,-2.65021 -2.42605,-3.70984 -21.11036,-21.20639 -42.29875,-42.33507 -63.4272,-63.52352 -7.71421,-7.73611 -7.8668,-16.2012 -0.28075,-24.30029 4.63356,-2.34547 8.60301,-1.51837 12.5062,1.04988 3.07827,2.02545 5.77526,4.45285 8.36236,7.04065 19.60328,19.60861 39.2605,39.16382 58.75827,58.87674 2.77605,2.8067 5.10425,3.8643 8.60303,0.94719 5.70039,-1.78319 8.19214,-6.7981 11.9272,-10.34372 1.1306,-1.07327 -0.97138,-2.18172 -1.81421,-3.03305 -8.42777,-8.51265 -16.91286,-16.96852 -25.38281,-25.43939 -18.5869,-18.58885 -37.19337,-37.15816 -55.75254,-55.77464 -7.69,-7.71375 -7.81259,-16.24179 -0.16968,-24.30417 4.27423,-2.2858 8.00673,-1.42485 11.694,0.642 3.53417,1.98102 6.42563,4.72151 9.25826,7.55493 25.20154,25.20875 50.44124,50.37959 75.56355,75.66703 2.72045,2.73833 5.06386,4.06583 8.65171,1.1103 5.56891,-1.69185 7.97784,-6.59545 11.63653,-10.00266 1.8095,-1.68512 -0.97134,-2.76906 -1.94944,-3.7547 -15.58449,-15.70491 -31.24672,-31.33269 -46.89112,-46.97816 -5.7637,-5.76412 -11.57933,-11.4775 -17.27768,-17.30552 -7.28497,-7.45078 -7.2511,-16.08453 0.28617,-23.946 3.90821,-2.05622 7.30526,-1.47705 10.75,0.42669 3.67923,2.03332 6.99275,4.48694 9.96038,7.45455 21.78846,21.78827 43.59223,43.56127 65.33554,65.39449 1.91547,1.9234 4.5904,3.60484 3.64744,7.34986 -9.36698,6.9035 -14.93033,15.54911 -15.1352,27.09458 -0.0378,2.12931 -0.91586,2.24033 -2.6643,2.40842 -22.38427,2.15199 -34.9394,19.06979 -29.98523,40.62221 0.59214,2.57596 -0.13483,2.94415 -2.13837,3.72473 -19.29176,7.51605 -26.55479,25.34042 -18.22559,44.64655 0.65721,1.52337 1.27034,2.47458 -0.68335,3.53018 -11.06098,5.97626 -16.31059,15.66894 -17.31143,28.38989 -0.98007,-0.77332 -1.64137,-1.1954 -2.18327,-1.73697 -26.84927,-26.83255 -53.70783,-53.65587 -80.51627,-80.52919 -7.78133,-7.80017 -7.71079,-16.703 0.32606,-24.6956 6.83114,-2.82462 11.59053,0.96591 15.98809,4.62077 5.59951,4.65381 10.43908,10.17253 15.60716,15.31731 8.34012,8.30247 16.77075,16.51994 24.9014,25.02359 2.79814,2.9265 5.15842,3.64331 8.57802,0.79648 z"
     id="path476" /></g><path
   fill="#ebbf3a"
   opacity="1"
   stroke="none"
   d="m 203.09059,428.86015 c 9.2e-4,-8.48307 -0.0528,-16.47117 0.0162,-24.45826 0.0918,-10.62848 6.61474,-17.66162 16.20285,-17.59658 9.33891,0.0633 15.71568,7.03698 15.77757,17.40271 0.0626,10.48342 -0.14919,20.97155 0.1067,31.44912 0.0887,3.62979 -1.09823,4.43244 -4.49398,4.31827 -7.47999,-0.2515 -14.98478,-0.31549 -22.45847,0.0165 -4.08783,0.18158 -5.83521,-0.90491 -5.19574,-5.15155 0.26952,-1.78992 0.0449,-3.65427 0.0449,-5.98016 z"
   id="path478"
   style="fill:#483737" /><g
   id="g877"
   style="fill:#550000;stroke-width:5;stroke-dasharray:none;stroke:#550000"><path
     fill="#735c32"
     opacity="1"
     stroke="none"
     d="m 239.98852,216.25925 c 2.53872,-9.71479 9.21633,-15.04008 17.37468,-14.23782 7.69019,0.75623 13.94526,7.11388 14.47523,14.71265 0.62442,8.95282 -6.18604,16.77041 -14.95649,17.16826 -9.78558,0.44389 -16.76707,-6.66124 -16.89342,-17.64309 z"
     id="path486"
     style="fill:#550000;stroke-width:5;stroke-dasharray:none;stroke:#550000" /><path
     fill="#735c32"
     opacity="1"
     stroke="none"
     d="m 231.19519,317.14399 c -6.44159,5.89096 -12.362,7.06122 -18.85962,3.95743 -5.82704,-2.78345 -9.65965,-9.15549 -9.20898,-15.31067 0.48794,-6.66443 5.0133,-12.35172 11.3804,-14.30252 6.33424,-1.94068 13.48123,0.34186 17.36096,5.54461 4.39832,5.8982 4.24602,12.98233 -0.67276,20.11115 z"
     id="path488"
     style="fill:#550000;stroke-width:5;stroke-dasharray:none;stroke:#550000" /><path
     fill="#735c32"
     opacity="1"
     stroke="none"
     d="m 232.29236,345.64143 c 3.91122,6.69464 3.90935,13.06588 -0.6565,18.90344 -3.97754,5.08539 -9.41781,7.32629 -15.8921,5.71002 -6.95484,-1.73624 -11.12854,-6.27392 -12.38501,-13.37262 -1.1297,-6.38254 2.68652,-13.54904 8.70546,-16.45911 7.12048,-3.44265 14.32716,-1.6733 20.22815,5.21827 z"
     id="path490"
     style="fill:#550000;stroke-width:5;stroke-dasharray:none;stroke:#550000" /><path
     fill="#735c32"
     opacity="1"
     stroke="none"
     d="m 217.7606,263.88679 c -1.29298,-9.64072 4.10828,-17.61702 12.51142,-18.95456 8.96234,-1.42653 17.32252,4.22725 18.61638,12.58975 1.46701,9.48181 -4.14464,17.37036 -13.46361,18.9263 -7.73763,1.29193 -14.66176,-3.49832 -17.66419,-12.56149 z"
     id="path492"
     style="fill:#550000;stroke-width:5;stroke-dasharray:none;stroke:#550000" /><path
     fill="#735c32"
     opacity="1"
     stroke="none"
     d="m 283.43413,198.67716 c -7.45307,-4.4199 -10.65192,-10.558 -9.36838,-17.43994 1.27228,-6.82158 6.8732,-12.08519 13.94342,-13.10376 5.97473,-0.86075 12.69394,2.69569 15.84564,8.26734 1.50827,2.66636 1.88993,5.07539 -0.0301,7.83621 -1.49747,2.15316 -2.53769,4.66353 -3.54266,7.11299 -3.54196,8.63301 -7.22836,10.34471 -16.84793,7.32716 z"
     id="path494"
     style="fill:#550000;stroke-width:5;stroke-dasharray:none;stroke:#550000" /></g><g
   id="g887"><path
     fill="#dea984"
     opacity="1"
     stroke="none"
     d="m 237.8087,177.50535 c -2.9575,6.82783 -3.83699,7.01448 -8.69304,2.15902 -26.44395,-26.44084 -52.89105,-52.87853 -79.32393,-79.33045 -4.49466,-4.49787 -9.527,-7.75845 -16.63672,-7.50922 7.14697,-5.74558 15.11001,-5.06732 22.27046,2.07712 23.09788,23.04622 46.15613,46.13214 69.22745,69.20498 4.35414,4.35444 8.69805,8.7191 13.15578,13.39855 z"
     id="path480" /><path
     fill="#dda883"
     opacity="1"
     stroke="none"
     d="m 273.21007,156.77601 c -0.59101,-2.15221 -2.33676,-3.32332 -3.72077,-4.70886 -22.64659,-22.67208 -45.26988,-45.3677 -68.00367,-67.95206 -4.6357,-4.60523 -9.86884,-8.4326 -17.36205,-8.30002 6.9771,-5.62321 14.99599,-5.05894 21.8803,1.76732 12.50674,12.40131 24.92286,24.89403 37.37767,37.34772 11.3973,11.39632 22.79855,22.78869 34.18939,34.19146 1.15314,1.15435 2.24649,2.36837 3.63052,3.83292 -2.75122,1.35466 -5.19632,2.55859 -7.99139,3.82152 z"
     id="path482" /><path
     fill="#deaa84"
     opacity="1"
     stroke="none"
     d="m 203.83104,211.42327 c -2.90286,6.91992 -3.81403,7.1277 -8.65683,2.28571 -20.81397,-20.81029 -41.61396,-41.63457 -62.44697,-62.4258 -4.45437,-4.44543 -9.36726,-8.0309 -16.60347,-7.4801 7.03968,-5.7955 15.14084,-5.15396 22.26184,1.95245 21.80348,21.75888 43.5606,43.56426 65.44543,65.66774 z"
     id="path484" /><path
     fill="#dfab85"
     opacity="1"
     stroke="none"
     d="m 169.85348,245.34287 c -2.78752,6.86035 -3.90858,7.13318 -8.62675,2.41661 -13.53806,-13.53346 -27.0806,-27.06245 -40.60433,-40.61023 -4.15067,-4.15806 -9.12096,-6.56138 -15.34314,-7.2393 6.79192,-5.21883 14.61443,-4.68916 21.10482,1.75142 14.50985,14.3985 28.91142,28.90616 43.4694,43.6815 z"
     id="path496" /></g>

<g
   id="g839"
   transform="translate(-1.0699322,-0.93918548)"><path
     fill="#000000"
     opacity="1"
     stroke="none"
     d="m 373.87405,218.99893 c -8.11099,-2.41864 -13.35528,-10.53966 -12.08752,-18.32525 0.52685,-3.23572 2.63455,-4.11606 5.46475,-3.08803 1.16382,0.42274 2.3812,1.40329 3.01526,2.46417 3.94174,6.59524 8.46677,12.61305 15.08472,16.79976 0.67026,0.42402 1.31308,1.1456 1.60165,1.87439 1.18787,2.99983 3.73364,6.76126 0.54956,9.04606 -2.71603,1.94899 -5.306,-1.59021 -7.39371,-3.53888 -1.90649,-1.7795 -3.01687,-4.43086 -6.23471,-5.23222 z"
     id="path622" /><path
     fill="#000000"
     opacity="1"
     stroke="none"
     d="m 430.08307,249.38458 c 2.44278,26.41849 -1.37705,51.33173 -13.85803,74.39124 -20.80649,38.44159 -52.93119,61.21423 -96.28693,67.62613 -25.20795,3.72799 -49.38626,-0.11524 -72.44592,-10.98334 -1.2894,-0.60764 -2.5701,-1.68784 -4.26042,-0.68689 0.1305,2.03818 1.88731,2.99918 2.94146,4.37943 4.86081,6.36431 6.77256,13.71121 6.85578,21.51623 0.16345,15.32785 -0.0251,30.65955 0.15512,45.98703 0.0496,4.22424 -1.20243,5.88879 -5.69396,5.83578 -17.99296,-0.2124 -35.99194,-0.23709 -53.98399,0.0107 -4.75409,0.0655 -5.94591,-1.66843 -5.88922,-6.09125 0.20068,-15.66022 0.0387,-31.32468 0.10966,-46.98709 0.0359,-7.92389 2.3974,-15.15354 7.65387,-21.14212 2.23012,-2.54068 2.03089,-4.04013 -0.0325,-6.69208 -8.38497,-10.77683 -10.2032,-22.67078 -3.98748,-35.05737 1.81167,-3.61023 1.08846,-5.41037 -1.49333,-7.97889 -31.42001,-31.25811 -62.69854,-62.65844 -94.097867,-93.93746 -6.040824,-6.01767 -11.034996,-12.50296 -12.098938,-21.252 -1.888473,-15.52924 4.856728,-27.6673 19.041505,-34.47589 0.87316,-0.4191 1.68224,-0.9717 3.06402,-1.77962 -8.569384,-9.12392 -13.129824,-19.42146 -10.443659,-31.90437 2.646614,-12.29914 10.645499,-19.95139 22.251619,-24.54258 -8.4075,-15.25534 -9.20955,-29.941571 3.45515,-42.52039 12.59221,-12.506821 27.25225,-12.118782 41.99053,-3.790512 1.70108,-1.241005 2.07463,-2.93882 2.79243,-4.411049 9.73883,-19.974682 35.1702,-24.790153 51.29564,-9.353538 13.47699,12.901306 26.49803,26.279487 39.68443,39.482999 1.62439,1.62651 3.0231,3.47837 5.40409,6.24604 0.82449,-4.96471 1.28653,-8.34175 1.95678,-11.676954 2.52665,-12.572502 9.48249,-22.538627 18.39554,-31.415054 2.66971,-2.658714 4.19919,-1.181549 6.13672,0.759682 24.12918,24.175194 48.3587,48.250556 72.42538,72.487696 13.72989,13.82712 28.38248,26.80111 40.8443,41.81303 15.33976,18.47884 24.54786,39.83237 27.5618,63.7544 0.0826,0.65612 0.31641,1.29321 0.55637,2.38804 m -60.56387,-75.4039 c -27.61939,-27.60675 -55.23874,-55.21351 -83.14014,-83.102155 -1.11557,1.633041 -1.73938,2.393402 -2.19946,3.242462 -7.68171,14.175813 -5.10062,32.585783 6.73455,44.846863 11.68418,12.10469 23.7107,23.87907 35.59681,35.7886 4.81167,4.82116 4.82345,4.80944 0.0125,9.58513 -15.94449,15.82758 -17.03577,38.46486 -2.67264,55.44149 7.26108,8.5823 7.17743,8.49461 -1.21057,16.49644 -2.53037,2.41388 -4.08817,2.24902 -6.55866,-0.1142 -9.95523,-9.52302 -16.65783,-20.69868 -18.4541,-34.52182 -0.37835,-2.91174 -1.47861,-4.53448 -4.78015,-4.33468 -2.54962,0.15429 -3.37207,1.15968 -3.56381,3.64816 -1.04428,13.55521 -7.92902,23.04372 -20.4838,28.21608 -2.94531,1.21342 -3.34652,2.5865 -2.76944,5.65356 2.69898,14.3441 -1.90963,25.96172 -14.17186,34.08434 -2.94111,1.94821 -2.83197,3.47553 -1.69055,6.43661 4.60588,11.94855 3.30734,23.28641 -5.10786,33.19883 -2.3237,2.73709 -1.91765,4.23034 0.17201,6.61547 5.64276,6.44068 8.23021,14.14588 7.2926,22.61039 -0.49331,4.45352 0.83895,6.64648 4.84493,8.37143 22.23172,9.57278 45.03647,12.07785 68.80536,6.9645 69.83682,-15.02386 107.82135,-92.69018 76.77087,-156.9089 -7.93631,-16.41386 -20.05502,-29.31119 -33.42657,-42.2186 M 149.66225,133.83775 c 20.16249,20.14008 40.3229,40.28223 60.48854,60.41918 7.96696,7.95562 7.81183,7.79803 -0.0492,16.07577 -3.17537,3.34371 -5.01185,2.84763 -7.99414,-0.18103 -20.34561,-20.66183 -40.84955,-41.16791 -61.32878,-61.69794 -8.40144,-8.42228 -17.74051,-9.36299 -24.73093,-2.58433 -6.99455,6.78265 -6.18761,15.91949 2.41453,24.56564 19.27488,19.37349 38.60295,38.69442 57.97274,57.97304 9.63941,9.59401 8.13196,6.71243 -0.0282,15.70769 -3.24272,3.57457 -5.238,3.09857 -8.36381,-0.11077 -13.37096,-13.72837 -26.91818,-27.28704 -40.52187,-40.78591 -6.65723,-6.60596 -16.94551,-6.79729 -22.86264,-0.72715 -6.211064,6.37169 -5.871647,16.13953 0.86898,22.86138 25.83837,25.76637 51.68815,51.52131 77.57472,77.23921 1.19664,1.18887 2.06099,3.08405 4.48938,2.94333 1.62068,-10.13037 5.73692,-18.88513 14.6739,-24.49076 3.23078,-2.02648 3.54997,-3.85818 2.21935,-7.31307 -5.34653,-13.88202 -1.70737,-27.7762 9.23257,-37.09194 3.60781,-3.07214 8.13889,-4.43719 12.32701,-6.77206 -0.14761,-1.20612 -0.22471,-2.35546 -0.43533,-3.47979 -3.85574,-20.58306 8.27161,-37.21963 29.10457,-39.61489 3.04463,-0.35007 3.74541,-1.59082 4.04619,-4.36826 1.34265,-12.39845 7.74182,-21.35599 18.95349,-26.87689 0.96539,-0.47539 2.34415,-0.60961 2.55173,-2.84125 -6.41507,-6.54912 -13.08985,-13.49892 -19.91153,-20.30139 -18.16561,-18.11446 -36.3308,-36.23034 -54.63845,-54.200715 -5.23613,-5.139671 -11.82774,-5.903458 -17.94113,-2.837647 -10.0466,5.03827 -11.33867,17.29406 -2.59514,26.058512 19.53838,19.58515 39.22943,39.01842 58.71117,58.65949 9.71896,9.79845 9.50722,6.48958 -0.24097,16.77306 -2.47014,2.60579 -4.22751,2.78988 -6.92293,0.0432 -15.98774,-16.29155 -32.14817,-32.41373 -48.25872,-48.58469 -10.58455,-10.62423 -21.13601,-21.28208 -31.79093,-31.835377 -7.56936,-7.497154 -17.49777,-7.903328 -24.02344,-1.168495 -6.292,6.493702 -5.63221,15.652182 1.71721,23.140612 4.90276,4.99548 9.8599,9.9376 15.29203,15.4042 m 55.47358,269.10161 c -0.0134,10.65924 0.10614,21.32111 -0.10687,31.97635 -0.0831,4.15619 0.97609,6.07986 5.58301,5.84113 6.81059,-0.35291 13.65648,-0.22397 20.48027,-0.0392 3.47217,0.0941 4.69775,-1.17279 4.64574,-4.64178 -0.15482,-10.32419 -0.0308,-20.65223 -0.061,-30.97864 -0.0265,-9.0798 -5.81852,-16.07395 -13.79267,-16.74188 -8.43602,-0.70664 -14.83528,4.54449 -16.74852,14.58404 M 271.9054,223.26581 c 1.83905,-7.52667 -1.07428,-14.6146 -7.33964,-17.8568 -6.47091,-3.34857 -15.00451,-1.66168 -19.47335,3.8495 -4.56969,5.63556 -4.7016,13.66932 -0.31885,19.41686 7.46577,9.79071 21.51596,7.3607 27.13184,-5.40956 m -45.47315,98.83774 c 7.53749,-4.09507 10.74669,-10.52192 9.03841,-18.10071 -1.35491,-6.01105 -7.41707,-11.29087 -13.4787,-11.6854 -6.8085,-0.4432 -12.26547,2.14118 -15.25841,8.26242 -2.79393,5.71424 -2.81061,11.82679 1.52928,16.913 4.57857,5.3659 10.43642,7.57001 18.16942,4.61069 m -0.48688,19.22888 c -2.17099,-1.07507 -4.49707,-1.14914 -6.83691,-0.98648 -6.11411,0.42502 -11.32512,4.57248 -13.25229,10.49356 -2.01932,6.20416 -0.21849,12.71863 4.63261,16.75845 5.04183,4.19867 11.64469,4.91434 17.18361,1.72653 5.13161,-2.9534 8.04325,-7.28915 8.0425,-13.39187 -8.2e-4,-6.70728 -3.19164,-11.3393 -9.76952,-14.60019 m -5.16481,-86.80391 c -3.03111,7.57158 -1.7059,14.70344 3.54715,19.08964 4.71164,3.93412 12.66277,4.5615 17.72331,1.42551 6.19014,-3.83597 8.57749,-9.40924 7.55921,-16.52332 -0.80832,-5.64711 -5.78676,-10.80252 -11.88251,-11.95387 -7.10921,-1.34279 -12.68571,1.14697 -16.94716,7.96204 m 76.59114,-55.48448 c 3.82453,-5.06119 5.35849,-11.25051 8.18421,-16.80657 0.42602,-0.83769 -0.0451,-2.29706 -0.4253,-3.35211 -2.17285,-6.03087 -10.28854,-10.45189 -16.5491,-9.10536 -9.01098,1.93806 -14.8927,10.64818 -12.70459,18.81383 2.61753,9.76799 10.98963,14.12129 21.49478,10.45021 z"
     id="path620" /></g></svg>
